<?xml version="1.0" encoding="UTF-8" standalone="no"?>
<svg width="21px" height="20px" viewBox="0 0 21 20" version="1.1" xmlns="http://www.w3.org/2000/svg" xmlns:xlink="http://www.w3.org/1999/xlink">
    <!-- Generator: Sketch 40.3 (33839) - http://www.bohemiancoding.com/sketch -->
    <title>收益默认状态@2x</title>
    <desc>Created with Sketch.</desc>
    <defs></defs>
    <g id="Page-1" stroke="none" stroke-width="1" fill="none" fill-rule="evenodd">
        <g id="03-比收益－理财" transform="translate(-253.000000, -626.000000)" fill="#B3B3B3">
            <g id="Group-3-Copy" transform="translate(0.000000, 612.000000)">
                <g id="Group-2">
                    <g id="Group-5-Copy-4" transform="translate(225.000000, 7.000000)">
                        <g id="收益" transform="translate(23.000000, 2.000000)">
                            <path d="M25.4015529,13.109589 C25.0478764,12.2511416 24.5080543,11.5022831 23.8193157,10.8812785 C23.0561189,10.1689498 22.0695475,9.62100457 20.9340596,9.21917809 C20.6362267,9.10958904 20.3011647,9.2739726 20.1894774,9.56621004 C20.07779,9.85844748 20.245321,10.1872146 20.5431539,10.2968037 C22.4046095,10.9360731 23.6703993,12.0319635 24.3219087,13.5479452 C24.8431163,14.7716895 24.8617308,16.0319635 24.7686581,16.890411 C24.6755853,17.8767123 24.433596,18.6986301 24.2846796,18.9908676 C23.7076284,20.1598173 21.8461728,22.9726027 21.2877362,23.8493151 L18.9981458,23.8493151 L18.9981458,22.9726027 C18.9981458,22.8082192 18.9236876,22.6438356 18.7933857,22.5342466 C18.6630838,22.4246575 18.4955528,22.3881279 18.3094073,22.4063927 C16.2431916,22.7534247 14.9587872,22.5525114 14.9401727,22.5525114 C14.7354126,22.5159817 14.5120379,22.5890411 14.381736,22.7534246 L13.6557684,23.6666667 L11.3475635,23.6666667 L11.3475635,21.6392694 C11.3475635,21.3835617 11.1800325,21.1643836 10.9380432,21.0913242 C9.9514718,20.7808219 9.09520224,20.1232877 8.38784913,19.1187215 C7.84802701,18.3515982 7.6060378,17.6757991 7.60603778,17.6757991 C7.55019412,17.5296804 7.43850678,17.4018265 7.28959035,17.3287671 L6.17271699,16.8538813 L6.17271699,14.6255708 L7.04760112,14.6255708 C7.30820489,14.6255708 7.53157956,14.4611872 7.60603778,14.2237443 C8.09001622,12.7442922 9.61640978,11.630137 9.63502436,11.630137 C9.76532625,11.5388128 9.85839903,11.3926941 9.87701357,11.2283105 C9.89562813,11.063927 9.83978445,10.8995434 9.72809713,10.7899543 C9.03935858,10.0410959 8.89044213,9.456621 8.89044213,9.14611873 C10.7518977,8.70776256 12.9484152,9.69406395 12.9670298,9.71232877 C13.0601026,9.74885846 13.1717899,9.76712328 13.2648627,9.76712328 C13.4510082,9.74885844 13.6557684,9.73059359 13.8419139,9.71232877 C14.1583614,9.69406393 14.4003506,9.42009133 14.381736,9.0913242 C14.3631215,8.78082191 14.0839031,8.54337898 13.7488411,8.56164383 C13.5999247,8.57990867 13.4510082,8.57990867 13.3020918,8.59817352 C12.6691969,8.34246576 10.2306901,7.42922375 8.14585989,8.15981734 C7.9783289,8.21461186 7.84802701,8.34246574 7.79218335,8.50684932 C7.73633969,8.6347032 7.40127768,9.67579908 8.46230734,11.1004566 C7.94109978,11.5570776 7.10344478,12.4155251 6.63808089,13.4931507 L5.57705122,13.4931507 C5.26060377,13.4931507 5,13.7488584 5,14.0593607 L5,17.2557078 C5,17.4931507 5.13030189,17.6940639 5.35367657,17.7853881 L6.60085178,18.3150685 C6.91729922,19.0456621 7.95971434,21.1643836 10.1748465,22.0593607 L10.1748465,24.2694064 C10.1748465,24.5799087 10.4354502,24.8356164 10.7518977,24.8356164 L13.9349867,24.8356164 C14.1211322,24.8356164 14.2886633,24.7625571 14.4003506,24.6164384 L15.1077037,23.739726 C15.5916821,23.7762557 16.5410245,23.8310502 17.8440434,23.6666667 L17.8440434,24.43379 C17.8440434,24.7442922 18.1046471,25 18.4210946,25 L21.6041836,25 C21.8089437,25 21.9764747,24.9086758 22.088162,24.7442922 C22.1998494,24.5981735 24.6383562,20.9452055 25.3457093,19.5022831 C25.5690839,19.0273973 25.8483023,18.0776256 25.9413751,17.0182648 C26.0344478,16.0136986 26.0158333,14.5525114 25.4015529,13.109589 L25.4015529,13.109589 Z" id="Shape"></path>
                            <path d="M15.2380056,10.2420091 C14.8098708,10.2968037 14.549267,10.369863 14.5120379,10.369863 C14.1955905,10.4611872 14.0280595,10.7716895 14.1025177,11.0821918 C14.1955905,11.3926941 14.5120379,11.5570776 14.8284854,11.4840183 C14.8470999,11.4840183 17.0063884,10.8995434 19.5379679,11.9771689 C19.6124261,12.0136986 19.6868844,12.0319635 19.7613426,12.0319635 C19.9847173,12.0319635 20.2080919,11.9041096 20.3011647,11.6849315 C20.4314666,11.3926941 20.3011647,11.0639269 20.0033318,10.9360731 C19.7054989,10.8082192 19.4262806,10.716895 19.1470623,10.6255708 C19.9661027,10.0776256 20.5059248,9.14611873 20.5059248,8.08675799 C20.5059248,6.36986301 19.1284477,5 17.4159086,5 C15.7033695,5 14.3258923,6.36986301 14.3258923,8.06849314 C14.3258923,8.92694062 14.6795689,9.69406393 15.2380056,10.2420091 L15.2380056,10.2420091 Z M17.4159086,6.15068492 C18.4769383,6.15068492 19.3518224,7.0091324 19.3518224,8.06849314 C19.3518224,9.12785389 18.4955528,9.98630137 17.4159086,9.98630137 C16.3362644,9.98630137 15.4799948,9.12785389 15.4799948,8.06849314 C15.4986094,7.00913242 16.3548789,6.15068492 17.4159086,6.15068492 L17.4159086,6.15068492 Z M9.57918068,14.4429224 C9.57918068,15.0821918 10.1003882,15.5936073 10.7518977,15.5936073 C11.4034071,15.5936073 11.9246147,15.0821918 11.9246147,14.4429224 C11.9246147,13.803653 11.4034071,13.2922375 10.7518977,13.2922374 C10.1003883,13.2922374 9.5791807,13.803653 9.57918068,14.4429224 L9.57918068,14.4429224 Z M10.8301952,14.5030522 C10.7320034,14.5030522 10.7320034,14.5030522 10.8301952,14.5030522 C10.7320034,14.4046143 10.7320034,14.4046143 10.8301952,14.5030522 C10.8301952,14.4046143 10.8301952,14.4046143 10.8301952,14.5030522 L10.8301952,14.5030522 Z" id="Shape"></path>
                        </g>
                    </g>
                </g>
            </g>
        </g>
    </g>
</svg>