<?xml version="1.0" encoding="UTF-8" standalone="no"?>
<svg width="17px" height="18px" viewBox="0 0 17 18" version="1.1" xmlns="http://www.w3.org/2000/svg" xmlns:xlink="http://www.w3.org/1999/xlink">
    <!-- Generator: Sketch 40.3 (33839) - http://www.bohemiancoding.com/sketch -->
    <title>我的默认@2x</title>
    <desc>Created with Sketch.</desc>
    <defs></defs>
    <g id="Symbols" stroke="none" stroke-width="1" fill="none" fill-rule="evenodd">
        <g id="footer_icon_me" transform="translate(-6.000000, -9.000000)" fill="#B3B3B3">
            <g id="我的默认">
                <path d="M21.9776792,26.4359376 L7.05681607,26.4359376 C6.47386751,26.4342154 6.00172216,25.9620701 6,25.3791215 L6,24.4383357 C6.00097083,24.058035 6.20560711,23.7074009 6.53624792,23.5195015 L11.5537723,20.6720564 C11.5737072,20.6613039 11.5900591,20.644952 11.6008116,20.6250171 L8.63733625,20.2643826 C8.47995204,20.2450868 8.34288003,20.1477988 8.27272807,20.0055989 C8.2025761,19.863399 8.20878572,19.6954254 8.2892455,19.5587932 C8.83889355,18.5765086 9.20847967,17.5038592 9.38055705,16.391481 C9.60007374,14.6510272 9.65965684,12.9764284 9.65965684,12.9576127 C9.65965684,12.1171774 10.1425936,11.1168085 10.9140379,10.3579079 C11.8135221,9.48245458 13.0206045,8.99489241 14.2757793,9.00004036 L14.7242205,9.00004036 C15.9793953,8.99489241 17.1864777,9.48245458 18.0859618,10.3579079 C18.8636781,11.1168085 19.3403429,12.1171774 19.3403429,12.9732925 C19.3403429,12.9732925 19.399926,14.6510272 19.6194427,16.388345 C19.7914544,17.5007395 20.1610445,18.5734003 20.7107543,19.5556573 C20.7912141,19.6922894 20.7974237,19.860263 20.7272717,20.0024629 C20.6571198,20.1446629 20.5200477,20.2419509 20.3626635,20.2612466 L17.3991882,20.6218812 C17.4099407,20.6418161 17.4262926,20.658168 17.4462275,20.6689205 L22.4637519,23.5163656 C22.7943927,23.704265 22.999029,24.0548991 22.9999998,24.4351997 L22.9999998,25.3759855 C23.0003598,25.9469943 22.5483281,26.4156652 21.9776792,26.4359376 Z M12.0147573,19.7124549 C12.1365131,19.723978 12.2489942,19.7824682 12.3283526,19.8755244 C12.5303257,20.1159832 12.614901,20.4338092 12.5591527,20.7428492 C12.5034043,21.0518891 12.3131071,21.3201303 12.039845,21.4748603 L7.02232059,24.3223054 C6.98585813,24.3426063 6.96310662,24.3809246 6.96273749,24.4226559 L6.96273749,25.3634417 C6.96273749,25.4275235 7.014686,25.479472 7.07876774,25.479472 L21.9996309,25.479472 C22.0637126,25.479472 22.1156611,25.4275235 22.1156611,25.3634417 L22.1156611,24.4226559 C22.115292,24.3809246 22.0925405,24.3426063 22.056078,24.3223054 L17.0385536,21.4748603 C16.7652916,21.3201303 16.5749943,21.0518891 16.5192459,20.7428492 C16.4634976,20.4338092 16.5480729,20.1159832 16.750046,19.8755244 C16.8294044,19.7824682 16.9418855,19.723978 17.0636413,19.7124549 L19.6445304,19.3988596 C19.1998699,18.4825429 18.899456,17.5030242 18.7539198,16.4949674 C18.5312671,14.7106103 18.471684,13.0454194 18.4685481,12.9795644 C18.4685481,11.7565428 16.9977862,9.93141832 14.7869396,9.93141832 L14.3384983,9.93141832 C12.1245157,9.93141832 10.6568898,11.7565428 10.6568898,12.9638846 C10.6568898,13.0516913 10.5941708,14.7137462 10.3715181,16.4981033 C10.2117925,17.5075063 9.89654422,18.4860456 9.4370042,19.3988596 L12.0147573,19.7124549 Z" id="Shape"></path>
            </g>
        </g>
    </g>
</svg>